G04 Smart Fan Controller v1.0 - Front Solder Mask*
%FSLAX46Y46*%
%MOMM*%
%TF.FileFunction,SolderMask,Top*%
%TF.FilePolarity,Negative*%
%LNFM_Top*%
G01*

%ADD10C,0.250000*%
%ADD11C,0.520000*%
%ADD12C,1.020000*%
%ADD13R,1.720000X1.720000*%
%ADD14C,0.820000*%
%ADD15C,3.420000*%

G04 --- SMD pad openings ---*
G04 ESP32-S3-WROOM-1 castellated pads*
D11*
X26000000Y13250000D03*
X26000000Y14500000D03*
X26000000Y15750000D03*
X26000000Y17000000D03*
X26000000Y18250000D03*
X26000000Y19500000D03*
X26000000Y20750000D03*
X26000000Y22000000D03*
X26000000Y23250000D03*
X26000000Y24500000D03*
X26000000Y25750000D03*
X44000000Y13250000D03*
X44000000Y14500000D03*
X44000000Y15750000D03*
X44000000Y17000000D03*
X44000000Y18250000D03*
X44000000Y19500000D03*
X44000000Y20750000D03*
X44000000Y22000000D03*
X44000000Y23250000D03*
X44000000Y24500000D03*
X44000000Y25750000D03*

G04 AMS1117 SOT-223 pads*
D13*
X8700000Y8000000D03*
X11300000Y8000000D03*
X10000000Y10600000D03*

G04 74AHCT125 SOIC-14 pads*
D10*
X52450000Y5400000D03*
X52450000Y6750000D03*
X52450000Y8100000D03*
X52450000Y9450000D03*
X52450000Y10800000D03*
X52450000Y12150000D03*
X52450000Y13500000D03*
X57550000Y5400000D03*
X57550000Y6750000D03*
X57550000Y8100000D03*
X57550000Y9450000D03*
X57550000Y10800000D03*
X57550000Y12150000D03*
X57550000Y13500000D03*

G04 BME280 LGA-8 pads*
D10*
X18750000Y49250000D03*
X19750000Y49250000D03*
X20750000Y49250000D03*
X18750000Y50750000D03*
X19750000Y50750000D03*
X20750000Y50750000D03*

G04 WS2812B-2020 pads*
D10*
X74250000Y4250000D03*
X75750000Y4250000D03*
X74250000Y5750000D03*
X75750000Y5750000D03*

G04 Type-C USB pads*
D10*
X71000000Y55000000D03*
X72000000Y55000000D03*
X73000000Y55000000D03*

G04 Mounting holes (solder mask clearance)*
D15*
X3000000Y3000000D03*
X77000000Y3000000D03*
X3000000Y57000000D03*
X77000000Y57000000D03*

M02*
