M48
; Smart Fan Controller v1.0 - Plated Through Holes (PTH)
; Board: 80mm x 60mm
; Units: METRIC
; Format: 3.3
METRIC,TZ
T1C0.800     ; Via 0.8mm drill
T2C1.000     ; Fan connector pins 1.0mm
T3C0.900     ; SATA connector 0.9mm
T4C1.100     ; SW1/SW2/SW3 tactile switch pins 1.1mm
T5C0.800     ; DS18B20 terminal pins 0.8mm
T6C0.900     ; Electrolytic capacitor leads 0.9mm
%

; --- GND Stitching Vias (T1: 0.8mm drill) ---
T1
X5.000Y5.000
X20.000Y5.000
X40.000Y5.000
X60.000Y5.000
X75.000Y5.000
X5.000Y30.000
X20.000Y30.000
X60.000Y30.000
X75.000Y30.000
X5.000Y55.000
X20.000Y55.000
X40.000Y55.000
X60.000Y55.000
X75.000Y55.000
X10.000Y15.000
X15.000Y15.000
X20.000Y15.000
X25.000Y15.000
X30.000Y15.000
X35.000Y15.000
X40.000Y15.000
X45.000Y15.000

; --- Fan connector through-hole pins (T2: 1.0mm) ---
T2
X13.000Y2.000
X14.540Y2.000
X16.080Y2.000
X17.620Y2.000
X28.000Y2.000
X29.540Y2.000
X31.080Y2.000
X32.620Y2.000
X43.000Y2.000
X44.540Y2.000
X46.080Y2.000
X47.620Y2.000
X58.000Y2.000
X59.540Y2.000
X61.080Y2.000
X62.620Y2.000

; --- SATA connector pins (T3: 0.9mm) ---
T3
X0.000Y27.200
X0.000Y28.300
X0.000Y29.400
X0.000Y30.500
X0.000Y31.600
X0.000Y32.700
X0.000Y33.800

; --- Tactile switches (T4: 1.1mm) ---
T4
X28.000Y58.000
X30.000Y58.000
X28.000Y60.000
X30.000Y60.000
X38.000Y58.000
X40.000Y58.000
X38.000Y60.000
X40.000Y60.000
X48.000Y58.000
X50.000Y58.000
X48.000Y60.000
X50.000Y60.000

; --- DS18B20 terminals J7/J8 (T5: 0.8mm) ---
T5
X3.540Y55.000
X5.080Y55.000
X6.620Y55.000
X10.540Y55.000
X12.080Y55.000
X13.620Y55.000

; --- Electrolytic capacitors (T6: 0.9mm) ---
T6
X5.000Y8.000
X7.000Y8.000
X10.000Y3.000
X12.000Y3.000
X5.000Y18.000
X7.000Y18.000
X3.000Y20.000
X5.000Y20.000
X15.000Y18.000
X15.000Y20.000
X30.000Y18.000
X30.000Y20.000
X45.000Y18.000
X45.000Y20.000
X60.000Y18.000
X60.000Y20.000
X3.000Y8.000

M30
